<?xml version="1.0" encoding="utf-8"?>
<!-- Generator: Adobe Illustrator 27.0.1, SVG Export Plug-In . SVG Version: 6.00 Build 0)  -->
<svg version="1.1" id="Master_Logo" xmlns="http://www.w3.org/2000/svg" xmlns:xlink="http://www.w3.org/1999/xlink" x="0px"
	 y="0px" width="1010px" height="310px" viewBox="0 0 1010 310" style="enable-background:new 0 0 1010 310;" xml:space="preserve">
<style type="text/css">
	.st0{fill:#004879;}
	.st1{fill:#DD1C23;}
</style>
<g>
	<g>
		<path class="st0" d="M111.8,286.7c-5.7,6.6-12.9,11.8-21.5,15.3c-8.7,3.6-18.3,5.3-29,5.3c-5.9,0-12.2-0.8-18.7-2.5
			c-6.5-1.7-12.6-4.5-18.2-8.4c-5.6-3.9-10.2-9.2-13.9-15.8C6.8,274,5,265.7,5,255.7c0-9.7,2-18.4,5.9-26
			c3.9-7.6,9.3-13.9,16.2-19.1c6.9-5.1,15-9,24.4-11.6c9.4-2.6,19.5-3.9,30.5-3.9c5.9,0,11.9,0.1,18,0.4c6.1,0.2,10,0.6,11.9,1.1
			V193c0-4.3-0.9-7.9-2.7-10.9c-1.8-3-4.2-5.5-7.1-7.5c-3-2-6.4-3.4-10.2-4.3c-3.8-0.8-7.8-1.2-12.1-1.2c-11.4,0-20.8,1.4-28.3,4.3
			c-7.5,2.8-13.8,6.1-19.1,9.6l-21-31.3c3.6-2.6,7.6-5.2,12.1-7.8c4.5-2.6,9.8-5,16-7.1c6.2-2.1,13.1-3.9,20.8-5.2
			c7.7-1.3,16.6-2,26.5-2c25.4,0,44.2,6.8,56.3,20.5c12.1,13.7,18.2,32,18.2,55v97.2h-48.1L111.8,286.7z M111.8,228.6
			c-1.2-0.2-3.4-0.5-6.8-0.9c-3.3-0.4-7.1-0.5-11.4-0.5c-14.2,0-24.3,2-30.3,6.1c-5.9,4-8.9,9.7-8.9,17.1c0,13.8,8.3,20.7,24.9,20.7
			c4,0,8-0.7,11.9-2c3.9-1.3,7.4-3.1,10.3-5.5c3-2.4,5.4-5.3,7.3-8.9c1.9-3.6,2.8-7.7,2.8-12.5V228.6z"/>
		<path class="st0" d="M181.8,135.3h49.1l1.8,18.5c5.2-6.4,11.9-11.8,19.9-16c8.1-4.3,17.6-6.4,28.5-6.4c6.6,0,12.6,0.7,17.8,2.1
			c5.2,1.4,9.8,3.3,13.7,5.5c3.9,2.3,7.4,4.8,10.3,7.5c3,2.7,5.4,5.4,7.3,8c6.9-7.4,15.3-13.1,25.1-17.1c9.9-4,20.1-6.1,30.8-6.1
			c21.4,0,37.7,6.1,49,18.2c11.3,12.1,16.9,28.6,16.9,49.5v103.3h-51.3v-95.1c0-10-2.2-17.7-6.6-23.1c-4.4-5.5-11-8.2-19.8-8.2
			c-10,0-17.9,3.4-23.9,10.3c-5.9,6.9-8.9,15.7-8.9,26.4v89.7h-49.5v-95.1c0-10-2.2-17.7-6.6-23.1c-4.4-5.5-11-8.2-19.8-8.2
			c-9.7,0-17.6,3.4-23.7,10.3c-6.1,6.9-9.1,15.7-9.1,26.4v89.7h-51.3V135.3z"/>
		<path class="st0" d="M472.5,64.8h50.9v86.5c5.5-6.4,12.7-11.3,21.7-14.8c9-3.4,18.2-5.2,27.4-5.2c19.2,0,34.6,5.7,46.1,17.1
			c11.5,11.4,17.3,28.3,17.3,50.6v103.3H585v-95.4c0-9.7-2.5-17.3-7.5-22.8c-5-5.5-11.6-8.2-19.9-8.2c-5.5,0-10.3,1-14.6,3
			c-4.3,2-7.8,4.7-10.7,8c-2.8,3.3-5,7.2-6.4,11.6c-1.4,4.4-2.1,9.1-2.1,14.1v89.7h-51.3V64.8z"/>
	</g>
	<g>
		<path class="st1" d="M995.6,246.2c-9-7.9-18.3-12.3-27-15.9c-21.4-8.7-44.8-13.5-71.7-14.6c-45.1-1.8-90.8,5.8-143.9,24.1
			c-10.4,3.6-21.1,6.4-32,8.4c-8.6,1.6-17.4,2.5-26.1,2.9l-4.3,0.1v51.1c0,0,11.9,0.1,18.3,0c2.1,0,4.3,0,6.4-0.1
			c13.2-0.6,26.7-2.7,41.2-6.4c23.5-5.9,45.8-15.1,66.7-24c28-12,56.8-19.8,85.4-23.2c12.2-1.5,24.5-2.3,36.7-2.5
			c12.3-0.2,24.5,0.4,36.7,1.7c5.8,0.6,11.5,1.4,17.3,2L995.6,246.2z"/>
		<g>
			<path class="st0" d="M717.8,228.9c5.2-1,10.4-2.1,15.6-3.5V110.4l91.2-59.9l91.4,58.4v88.5c15.2,1.6,29.4,4.5,42.9,8.6l0-5.4
				l-0.1-68.8l35.1,0c5.1,0,9.4-3.2,10.8-8.1c1.4-4.9-0.4-9.9-4.7-12.7L835,5.7c-6.4-4.1-14.6-4.1-21,0L649.2,111v0
				c-4.3,2.8-6.2,7.7-4.7,12.6c1.4,4.9,5.7,8.1,10.8,8.1l35.4,0l-0.1,99.8l3.7-0.1C702.2,231.1,710,230.3,717.8,228.9z"/>
		</g>
	</g>
	<g>
		<path class="st1" d="M975.7,261.3c-1-0.4-1.7-0.7-2.2-1c-0.5-0.3-0.8-0.6-1-0.9c-0.2-0.3-0.3-0.8-0.3-1.3c0-0.7,0.3-1.3,0.8-1.7
			c0.5-0.4,1.3-0.6,2.2-0.6c1.2,0,2.5,0.3,3.8,0.8l0.2,0.1l0.7-1.9l-0.1-0.1c-1.4-0.6-2.9-0.9-4.5-0.9c-1.6,0-2.9,0.4-3.8,1.1
			c-1,0.8-1.5,1.8-1.5,3.1c0,1.2,0.3,2.2,1,3c0.7,0.8,1.8,1.4,3.3,2c1.1,0.4,1.9,0.7,2.4,1c0.5,0.3,0.9,0.6,1.1,0.9
			c0.2,0.3,0.3,0.8,0.3,1.3c0,0.8-0.3,1.4-0.9,1.9c-0.6,0.5-1.5,0.7-2.7,0.7c-0.8,0-1.5-0.1-2.3-0.2c-0.8-0.2-1.5-0.4-2.1-0.7
			l-0.2-0.1v2.2l0.1,0c1,0.5,2.6,0.8,4.5,0.8c1.8,0,3.2-0.4,4.3-1.2c1.1-0.8,1.6-2,1.6-3.5c0-1.1-0.3-2.1-1-2.8
			C978.6,262.6,977.4,261.9,975.7,261.3z"/>
		<path class="st1" d="M996.4,254.1l-5.1,13.2l-5.1-13.2h-3.1v16.5h2.1v-10.4c0-1.2,0-2.3-0.1-3.3l5.2,13.7h1.7l5.3-13.7
			c-0.1,1.1-0.1,2.2-0.1,3.1v10.6h2.2v-16.5H996.4z"/>
	</g>
</g>
</svg>
