<?xml version="1.0" encoding="utf-8"?>
<!-- Generator: Adobe Illustrator 27.0.0, SVG Export Plug-In . SVG Version: 6.00 Build 0)  -->
<svg version="1.1" id="Layer_1" xmlns="http://www.w3.org/2000/svg" xmlns:xlink="http://www.w3.org/1999/xlink" x="0px" y="0px"
	 viewBox="0 0 360 360" style="enable-background:new 0 0 360 360;" xml:space="preserve">
<style type="text/css">
	.st0{fill:#FDD106;}
	.st1{fill:#252A37;}
</style>
<g>
	<path class="st0" d="M0,0h360v360H0V0z"/>
	<path class="st1" d="M84.17,171.85c1.81-1.24,6.43-4.95,6.43-11.63c0-10.14-6.52-16.98-18.71-16.98H47.57v58.69h25.56
		c10.47,0,18.3-6.1,18.3-17.31C91.43,176.38,86.56,173.33,84.17,171.85z M61.99,156.19h8.99c3.96,0,5.19,2.47,5.19,4.78
		c0,2.31-1.23,4.78-5.19,4.78h-8.99V156.19z M71.72,189h-9.73v-10.3h9.73c3.96,0,5.28,2.64,5.28,5.11S75.68,189,71.72,189z
		 M316.65,189.08v12.86h-39.08v-58.69h14.43v45.84H316.65z M122.64,167.24h10.48v10.48h-10.48V167.24z M233.53,167.24h10.48v10.48
		h-10.48V167.24z M177.99,143.24l-21.35,58.69h15.09l2.93-8.74h18.02l2.72,8.74h15.09l-21.35-58.69H177.99z M178.68,181.17
		l5.25-15.66l4.95,15.66H178.68z"/>
</g>
</svg>
